[img]http://img21.imageshack.us/img21/6089/capmm.jpg[/img]
[code]
Format                           : AVI
Format/Info                      : Audio Video Interleave
File size                        : 501 MiB
Duration                         : 1h 54mn
Overall bit rate                 : 613 Kbps
Writing library                  : VirtualDub build 32842/release

Video
ID                               : 0
Format                           : MPEG-4 Visual
Format profile                   : Advanced Simple@L5
Format settings, BVOP            : 2
Format settings, QPel            : No
Format settings, GMC             : No warppoints
Format settings, Matrix          : Default (H.263)
Muxing mode                      : Packed bitstream
Codec ID                         : XVID
Codec ID/Hint                    : XviD
Duration                         : 1h 54mn
Bit rate                         : 474 Kbps
Width                            : 624 pixels
Height                           : 272 pixels
Display aspect ratio             : 2.25:1
Frame rate                       : 29.970 fps
Color space                      : YUV
Chroma subsampling               : 4:2:0
Bit depth                        : 8 bits
Scan type                        : Progressive
Compression mode                 : Lossy
Bits/(Pixel*Frame)               : 0.093
Stream size                      : 387 MiB (77%)
Writing library                  : XviD 63

Audio
ID                               : 1
Format                           : MPEG Audio
Format version                   : Version 1
Format profile                   : Layer 3
Codec ID                         : 55
Codec ID/Hint                    : MP3
Duration                         : 1h 54mn
Bit rate mode                    : Constant
Bit rate                         : 128 Kbps
Channel(s)                       : 2 channels
Sampling rate                    : 44.1 KHz
Compression mode                 : Lossy
Stream size                      : 104 MiB (21%)
Alignment                        : Split accross interleaves
Interleave, duration             : 33 ms (1.00 video frame)
Interleave, preload duration     : 500 ms

plot:
After being deemed unfit for military service, Steve Rogers volunteers for a top secret research project that turns him into Captain America, a superhero dedicated to defending America.


IMDB: http://www.imdb.com/title/tt0458339/
Web: http://captainamerica.marvel.com/
Trailer: http://www.imdb.com/video/imdb/vi2912787481/
Rotten Tomatoes :http://www.rottentomatoes.com/m/captain-america/
Source Used: IMAGiNE
Corrections Tried: Brightness
Likes: Depends On your Comments 
[/code]
Screens:
[img]http://img692.imageshack.us/img692/7606/22314209.png[/img]
[img]http://img232.imageshack.us/img232/5871/95296424.png[/img]
[img]http://img641.imageshack.us/img641/3784/24582478.png[/img]
[img]http://img23.imageshack.us/img23/8479/30552990.png[/img]
[img]http://img851.imageshack.us/img851/8861/99829680.png[/img]